# xmcd
#
# Track frame offsets:
#	150
#	11756
#	23487
#	36369
#	47802
#	63936
#	78102
#	91554
#	103834
#	121489
#	136319
#	145569
#	161193
#	173790
#	187412
#	198333
#
# Disc length: 2866 seconds
#
# Revision: 0
# Processed by: cddbd v1.5.2PL0 Copyright (c) Steve Scherf et al.
# Submitted via: EasyCDDAExtractor 16.0.6.1
#
DISCID=d30b3010
DTITLE=Πουλόπουλος Γιάννης - Ενενήντα έξι μεγ. επιτυχίες-Γ. Πουλόπουλος 6
DYEAR=2010
DGENRE=Ποικίλη
TTITLE0=Πουλόπουλος Γιάννης - Καμαρούλα μιά σταλιά [Μ. Πλέσσας-Λ. Παπαδόπουλος
TTITLE0=]
TTITLE1=Πουλόπουλος Γιάννης - Έκλαψα χθες [Μ. Πλέσσας-Ά. Δασκαλόπουλος]
TTITLE2=Αστεριάδη Πόπη-Πουλόπουλος Γιάννης - Φραγκόκλησσα [Μ. Πλέσσας-Λ. Παπαδ
TTITLE2=όπουλος]
TTITLE3=Πουλόπουλος Γιάννης - Άμαξα μέσ' στη βροχή [Απ. Χατζηχρήστος-Χ. Βασιλε
TTITLE3=ιάδης]
TTITLE4=Πουλόπουλος Γιάννης - Πώς να ξεχάσει κανείς την αυγή [Γ. Πουλόπουλος]
TTITLE5=Πουλόπουλος Γιάννης - Κι αν περπατώ [Γ. Σπανός-Ά. Δασκαλόπουλος]
TTITLE6=Πουλόπουλος Γιάννης - Απόψε αντάμωσα το Χάρο [Μ. Πλέσσας-Λ. Παπαδόπουλ
TTITLE6=ος]
TTITLE7=Πουλόπουλος Γιάννης - Ένα-ένα χάσαμε [Γ. Κριμιζάκης-Λ. Παπαδόπουλος]
TTITLE8=Πουλόπουλος Γιάννης - Σπουργιτάκι [Α. Στεφανίδης-Βασ. Παπαδόπουλος]
TTITLE9=Πουλόπουλος Γιάννης - Οι πικροδάφνες [Γ. Κατσαρός-Πυθαγόρας]
TTITLE10=Πουλόπουλος Γιάννης - Το κορίτσι μου στ' άστρα [Δ. Μούτσης-Ανδ. Αγγελ
TTITLE10=άκης]
TTITLE11=Πουλόπουλος Γιάννης - Χάθηκαν οι ώρες [Λ. Κόκοτος-Αν. Μωραΐτης]
TTITLE12=Πουλόπουλος Γιάννης - Πού θα πάει [Γ. Ζαμπέτας-Αλ. Καγιάντας]
TTITLE13=Πουλόπουλος Γιάννης - Δε σε μπορώ [Νίκος Καλλίτσης]
TTITLE14=Πουλόπουλος Γιάννης - Χτες το βράδυ [Μ. Πλέσσας-Ά. Δασκαλόπουλος]
TTITLE15=Πουλόπουλος Γιάννης - Χωρισμός [Ν. Μαμαγκάκης-Γ. Ρίτσος]
EXTD=
EXTT0=
EXTT1=
EXTT2=
EXTT3=
EXTT4=
EXTT5=
EXTT6=
EXTT7=
EXTT8=
EXTT9=
EXTT10=
EXTT11=
EXTT12=
EXTT13=
EXTT14=
EXTT15=
PLAYORDER=
